<svg id="svg" version="1.1" xmlns="http://www.w3.org/2000/svg" xmlns:xlink="http://www.w3.org/1999/xlink" width="400" height="400" viewBox="0, 0, 400,400"><g id="svgg"><path id="path0" d="M254.000 10.737 C 254.000 11.031,251.139 12.000,250.268 12.000 C 249.499 12.000,247.378 13.104,246.793 13.808 C 246.523 14.134,245.953 14.400,245.527 14.400 C 245.101 14.400,244.847 14.553,244.963 14.740 C 245.078 14.927,244.684 15.332,244.086 15.640 C 242.777 16.315,238.800 20.321,238.800 20.965 C 238.800 21.217,238.440 21.683,238.000 22.000 C 237.560 22.317,237.200 22.831,237.200 23.141 C 237.200 23.452,236.885 23.999,236.500 24.357 C 235.471 25.315,234.800 26.658,234.800 27.761 C 234.800 28.296,234.637 28.793,234.438 28.867 C 234.239 28.940,234.014 29.540,233.939 30.200 C 233.864 30.860,233.637 31.519,233.435 31.665 C 233.232 31.810,233.069 33.070,233.073 34.465 C 233.076 35.859,232.942 37.091,232.774 37.202 C 232.607 37.313,232.438 38.303,232.399 39.402 C 232.300 42.214,232.343 42.482,232.843 42.174 C 233.147 41.986,233.194 42.198,232.993 42.850 C 232.832 43.372,232.678 43.800,232.650 43.800 C 232.623 43.800,232.197 44.025,231.705 44.300 C 231.213 44.575,230.453 44.800,230.016 44.800 C 229.058 44.800,225.600 46.428,225.600 46.880 C 225.600 47.056,225.049 47.200,224.376 47.200 C 223.663 47.200,223.256 47.367,223.400 47.600 C 223.536 47.820,223.406 48.000,223.112 48.000 C 222.817 48.000,222.317 48.360,222.000 48.800 C 221.683 49.240,221.193 49.600,220.912 49.600 C 220.630 49.600,220.400 49.780,220.400 50.000 C 220.400 50.220,220.214 50.400,219.987 50.400 C 219.759 50.400,218.943 51.030,218.173 51.800 C 216.449 53.524,216.715 53.554,214.621 51.400 C 213.659 50.410,212.715 49.600,212.524 49.600 C 212.333 49.600,211.917 49.240,211.600 48.800 C 211.283 48.360,210.703 48.000,210.312 48.000 C 209.920 48.000,209.600 47.809,209.600 47.576 C 209.600 47.343,209.439 47.252,209.242 47.374 C 209.045 47.496,208.781 47.326,208.654 46.998 C 208.528 46.669,208.149 46.400,207.813 46.400 C 207.476 46.400,207.200 46.209,207.200 45.976 C 207.200 45.743,207.052 45.644,206.871 45.756 C 206.691 45.868,206.040 45.698,205.426 45.380 C 204.811 45.061,203.890 44.800,203.378 44.800 C 202.866 44.800,202.336 44.620,202.200 44.400 C 202.064 44.180,201.063 44.000,199.976 44.000 C 198.889 44.000,198.000 43.826,198.000 43.612 C 198.000 42.987,187.726 43.757,187.020 44.435 C 186.811 44.636,186.237 44.800,185.744 44.800 C 185.251 44.800,184.736 44.980,184.600 45.200 C 184.464 45.420,183.941 45.600,183.438 45.600 C 182.355 45.600,180.286 46.573,179.593 47.408 C 179.323 47.734,178.870 48.000,178.587 48.000 C 178.012 48.000,173.200 52.416,173.200 52.943 C 173.200 53.128,172.660 53.783,172.000 54.400 C 171.340 55.017,170.800 55.809,170.800 56.160 C 170.800 56.512,170.620 56.800,170.400 56.800 C 170.180 56.800,170.000 57.120,170.000 57.512 C 170.000 57.903,169.640 58.483,169.200 58.800 C 168.760 59.117,168.400 59.697,168.400 60.088 C 168.400 60.480,168.220 60.800,168.000 60.800 C 167.780 60.800,167.600 61.509,167.600 62.376 C 167.600 63.243,167.420 64.064,167.200 64.200 C 166.980 64.336,166.800 65.157,166.800 66.024 C 166.800 66.891,166.620 67.600,166.400 67.600 C 166.180 67.600,165.997 68.095,165.994 68.700 C 165.988 69.781,165.219 71.538,165.206 70.500 C 165.203 70.225,164.840 70.000,164.400 70.000 C 163.960 70.000,163.600 69.820,163.600 69.600 C 163.600 69.380,163.240 69.200,162.800 69.200 C 162.360 69.200,162.000 69.020,162.000 68.800 C 162.000 68.580,161.640 68.400,161.200 68.400 C 160.760 68.400,160.400 68.220,160.400 68.000 C 160.400 67.780,159.860 67.600,159.200 67.600 C 158.540 67.600,158.000 67.420,158.000 67.200 C 158.000 66.980,157.569 66.800,157.043 66.800 C 156.118 66.800,155.388 65.866,155.797 65.206 C 155.906 65.028,155.728 64.370,155.400 63.742 C 155.073 63.114,154.804 62.455,154.802 62.278 C 154.801 62.100,154.276 60.899,153.636 59.609 C 152.995 58.318,152.575 57.158,152.702 57.031 C 152.829 56.904,152.723 56.800,152.467 56.800 C 152.210 56.800,152.000 56.612,152.000 56.382 C 152.000 56.152,151.595 55.552,151.100 55.048 C 150.605 54.545,149.078 52.933,147.707 51.467 C 146.336 50.000,145.007 48.800,144.754 48.800 C 144.501 48.800,143.958 48.412,143.547 47.939 C 143.136 47.465,142.800 47.201,142.800 47.352 C 142.800 47.638,139.282 45.796,138.620 45.163 C 138.411 44.963,137.747 44.800,137.144 44.800 C 136.541 44.800,135.936 44.620,135.800 44.400 C 135.664 44.180,134.483 44.000,133.176 44.000 C 131.869 44.000,130.800 43.830,130.800 43.622 C 130.800 43.415,129.361 43.258,127.600 43.275 C 125.840 43.292,124.400 43.462,124.400 43.653 C 124.400 43.844,123.626 44.000,122.680 44.000 C 121.734 44.000,120.789 44.171,120.579 44.381 C 120.370 44.590,119.524 44.807,118.699 44.863 C 117.875 44.918,117.200 45.107,117.200 45.282 C 117.200 45.457,116.955 45.600,116.656 45.600 C 115.889 45.600,111.200 48.064,111.200 48.467 C 111.200 48.650,110.986 48.800,110.724 48.800 C 110.136 48.800,105.200 53.961,105.200 54.576 C 105.200 54.822,104.840 55.283,104.400 55.600 C 103.960 55.917,103.600 56.497,103.600 56.888 C 103.600 57.280,103.420 57.600,103.200 57.600 C 102.980 57.600,102.800 57.960,102.800 58.400 C 102.800 58.840,102.620 59.200,102.400 59.200 C 102.180 59.200,102.000 59.549,102.000 59.976 C 102.000 60.403,101.820 60.864,101.600 61.000 C 101.380 61.136,101.200 61.687,101.200 62.224 C 101.200 62.761,101.020 63.200,100.800 63.200 C 100.580 63.200,100.400 63.830,100.400 64.600 C 100.400 66.175,100.341 66.190,96.400 65.628 C 94.025 65.290,88.000 65.881,88.000 66.452 C 88.000 66.643,87.100 66.800,86.000 66.800 C 84.900 66.800,84.000 66.980,84.000 67.200 C 84.000 67.420,83.460 67.600,82.800 67.600 C 82.140 67.600,81.600 67.780,81.600 68.000 C 81.600 68.220,81.161 68.400,80.624 68.400 C 80.087 68.400,79.536 68.580,79.400 68.800 C 79.264 69.020,78.803 69.200,78.376 69.200 C 77.949 69.200,77.600 69.380,77.600 69.600 C 77.600 69.820,77.190 70.000,76.688 70.000 C 76.187 70.000,75.517 70.360,75.200 70.800 C 74.883 71.240,74.303 71.600,73.912 71.600 C 73.520 71.600,73.200 71.780,73.200 72.000 C 73.200 72.220,72.930 72.400,72.600 72.400 C 72.271 72.400,71.259 73.120,70.352 74.000 C 69.445 74.880,68.532 75.600,68.323 75.600 C 68.114 75.600,67.702 75.825,67.407 76.100 C 67.112 76.375,66.139 77.208,65.243 77.950 C 64.348 78.693,63.696 79.431,63.795 79.591 C 63.893 79.751,63.361 80.394,62.612 81.019 C 61.862 81.644,61.331 82.288,61.431 82.450 C 61.531 82.612,61.163 83.230,60.614 83.823 C 60.065 84.416,59.712 85.058,59.831 85.250 C 59.950 85.443,59.902 85.601,59.724 85.603 C 59.346 85.607,58.400 87.520,58.400 88.280 C 58.400 88.566,58.220 88.800,58.000 88.800 C 57.780 88.800,57.600 89.160,57.600 89.600 C 57.600 90.040,57.420 90.400,57.200 90.400 C 56.980 90.400,56.800 90.940,56.800 91.600 C 56.800 92.260,56.620 92.800,56.400 92.800 C 56.180 92.800,56.000 93.509,56.000 94.376 C 56.000 95.243,55.820 96.064,55.600 96.200 C 55.380 96.336,55.200 97.337,55.200 98.424 C 55.200 99.511,55.020 100.400,54.800 100.400 C 54.263 100.400,54.263 110.668,54.800 111.000 C 55.020 111.136,55.200 111.878,55.200 112.650 C 55.200 113.421,55.373 114.375,55.584 114.769 C 55.795 115.164,56.011 116.142,56.065 116.943 C 56.119 117.744,56.307 118.400,56.482 118.400 C 56.657 118.400,56.800 118.655,56.800 118.967 C 56.800 119.278,56.935 119.593,57.100 119.667 C 57.265 119.740,57.702 120.347,58.072 121.015 L 58.744 122.229 57.472 122.758 C 50.209 125.779,47.190 128.576,45.423 133.921 C 44.619 136.352,44.654 142.815,45.476 143.636 C 46.130 144.290,353.740 144.419,354.394 143.766 C 355.082 143.078,355.490 139.516,355.181 136.892 C 354.582 131.811,351.001 126.758,346.300 124.361 C 343.821 123.097,343.404 122.205,344.817 121.188 C 345.683 120.565,345.997 112.000,345.154 112.000 C 344.959 112.000,344.800 111.291,344.800 110.424 C 344.800 109.557,344.620 108.736,344.400 108.600 C 344.180 108.464,344.000 107.924,344.000 107.400 C 344.000 106.876,343.820 106.336,343.600 106.200 C 343.380 106.064,343.200 105.603,343.200 105.176 C 343.200 104.749,343.020 104.400,342.800 104.400 C 342.580 104.400,342.400 104.040,342.400 103.600 C 342.400 103.160,342.220 102.800,342.000 102.800 C 341.780 102.800,341.600 102.506,341.600 102.147 C 341.600 101.788,341.259 101.198,340.842 100.836 C 340.425 100.475,339.740 99.563,339.320 98.811 L 338.556 97.444 340.478 95.562 C 341.535 94.526,342.400 93.474,342.400 93.223 C 342.400 92.972,342.760 92.380,343.200 91.908 C 343.640 91.436,344.000 90.723,344.000 90.325 C 344.000 89.926,344.180 89.600,344.400 89.600 C 344.620 89.600,344.800 88.880,344.800 88.000 C 344.800 87.120,344.964 86.400,345.165 86.400 C 345.366 86.400,345.530 84.780,345.530 82.800 C 345.530 80.820,345.399 79.200,345.238 79.200 C 345.076 79.200,344.699 78.299,344.399 77.197 C 344.099 76.095,343.527 74.843,343.127 74.414 C 342.727 73.985,342.400 73.437,342.400 73.198 C 342.400 72.510,338.959 69.200,338.244 69.200 C 337.890 69.200,337.600 69.020,337.600 68.800 C 337.600 68.580,337.240 68.400,336.800 68.400 C 336.360 68.400,336.000 68.220,336.000 68.000 C 336.000 67.780,335.550 67.600,335.000 67.600 C 334.450 67.600,334.000 67.420,334.000 67.200 C 334.000 66.980,333.460 66.800,332.800 66.800 C 332.140 66.800,331.600 66.650,331.600 66.467 C 331.600 65.255,323.993 65.333,323.136 66.554 C 322.733 67.128,321.734 65.922,321.417 64.477 C 321.263 63.775,320.941 63.200,320.702 63.200 C 320.462 63.200,320.381 63.085,320.522 62.945 C 321.076 62.390,317.652 58.400,316.622 58.400 C 316.283 58.400,315.782 58.040,315.507 57.600 C 315.232 57.160,314.691 56.800,314.304 56.800 C 313.917 56.800,313.600 56.620,313.600 56.400 C 313.600 56.180,313.240 56.000,312.800 56.000 C 312.342 56.000,312.000 55.733,312.000 55.376 C 312.000 54.984,311.815 54.864,311.500 55.053 C 311.125 55.279,311.130 55.194,311.519 54.713 C 312.120 53.971,312.154 44.658,311.555 45.028 C 311.360 45.148,311.200 44.882,311.200 44.436 C 311.200 43.989,310.840 42.983,310.400 42.200 C 309.960 41.417,309.600 40.610,309.600 40.406 C 309.600 39.708,305.422 35.600,304.712 35.600 C 304.320 35.600,304.000 35.420,304.000 35.200 C 304.000 34.980,303.735 34.800,303.412 34.800 C 303.089 34.800,302.165 34.429,301.358 33.977 C 300.552 33.524,299.152 33.129,298.246 33.099 C 297.341 33.069,296.506 32.910,296.391 32.745 C 296.076 32.295,292.382 32.191,292.071 32.624 C 291.122 33.942,288.800 32.800,288.800 31.015 C 288.800 30.442,288.347 29.079,287.793 27.987 C 287.240 26.894,286.892 26.000,287.022 26.000 C 287.151 26.000,286.973 25.715,286.625 25.368 C 286.277 25.020,286.095 24.570,286.220 24.368 C 286.345 24.165,286.257 24.000,286.024 24.000 C 285.791 24.000,285.600 23.730,285.600 23.400 C 285.600 23.070,285.420 22.800,285.200 22.800 C 284.980 22.800,284.800 22.530,284.800 22.200 C 284.800 21.870,284.620 21.600,284.400 21.600 C 284.180 21.600,284.000 21.410,284.000 21.177 C 284.000 20.658,280.248 16.800,279.742 16.800 C 279.541 16.800,279.117 16.440,278.800 16.000 C 278.483 15.560,277.993 15.200,277.712 15.200 C 277.430 15.200,277.200 15.020,277.200 14.800 C 277.200 14.580,276.930 14.400,276.600 14.400 C 276.270 14.400,276.000 14.190,276.000 13.933 C 276.000 13.677,275.885 13.582,275.744 13.723 C 275.517 13.949,273.324 12.952,272.800 12.383 C 272.690 12.264,271.790 11.937,270.800 11.656 C 269.810 11.375,268.431 10.972,267.736 10.760 C 266.334 10.332,254.000 10.311,254.000 10.737 M61.328 299.600 C 61.328 301.030,61.401 301.615,61.489 300.900 C 61.578 300.185,61.578 299.015,61.489 298.300 C 61.401 297.585,61.328 298.170,61.328 299.600 M338.520 300.000 C 338.520 301.210,338.595 301.705,338.687 301.100 C 338.778 300.495,338.778 299.505,338.687 298.900 C 338.595 298.295,338.520 298.790,338.520 300.000 M337.701 321.800 C 337.705 322.680,337.787 322.993,337.883 322.495 C 337.979 321.998,337.975 321.278,337.875 320.895 C 337.775 320.513,337.696 320.920,337.701 321.800 M62.914 334.200 C 62.917 335.300,62.995 335.703,63.087 335.095 C 63.179 334.486,63.177 333.586,63.082 333.095 C 62.987 332.603,62.911 333.100,62.914 334.200 M336.924 335.400 C 336.926 336.720,337.001 337.212,337.090 336.493 C 337.179 335.774,337.177 334.694,337.086 334.093 C 336.995 333.492,336.922 334.080,336.924 335.400 M63.693 348.000 C 63.693 348.770,63.775 349.085,63.876 348.700 C 63.976 348.315,63.976 347.685,63.876 347.300 C 63.775 346.915,63.693 347.230,63.693 348.000 M335.874 347.100 C 335.778 347.265,335.845 347.760,336.022 348.200 C 336.303 348.898,336.347 348.860,336.372 347.900 C 336.400 346.815,336.212 346.514,335.874 347.100 " stroke="none" fill="#fcce6d" fill-rule="evenodd"></path><path id="path1" d="M91.100 65.482 C 91.595 65.578,92.405 65.578,92.900 65.482 C 93.395 65.387,92.990 65.309,92.000 65.309 C 91.010 65.309,90.605 65.387,91.100 65.482 M95.500 65.482 C 95.995 65.578,96.805 65.578,97.300 65.482 C 97.795 65.387,97.390 65.309,96.400 65.309 C 95.410 65.309,95.005 65.387,95.500 65.482 M57.600 218.595 C 57.600 223.265,57.748 226.000,58.000 226.000 C 58.253 226.000,58.400 228.844,58.400 233.733 C 58.400 237.987,58.497 241.563,58.615 241.681 C 58.733 241.799,58.890 244.574,58.964 247.848 C 59.338 264.334,59.742 274.817,59.989 274.417 C 60.140 274.173,60.565 274.088,60.932 274.229 C 61.679 274.516,61.770 274.857,61.249 275.420 C 60.741 275.970,60.330 282.496,60.762 283.164 C 60.988 283.514,60.965 283.988,60.700 284.411 C 60.146 285.298,60.591 286.420,61.602 286.685 C 62.041 286.799,62.400 287.030,62.400 287.198 C 62.400 287.739,61.248 288.477,60.818 288.211 C 60.548 288.044,60.411 288.635,60.432 289.876 C 60.449 290.934,60.548 291.594,60.651 291.342 C 60.754 291.091,61.190 290.977,61.619 291.089 C 62.563 291.336,62.657 292.726,61.754 293.073 C 60.878 293.409,61.313 299.541,62.265 300.273 C 62.877 300.744,62.644 301.798,62.014 301.409 C 61.833 301.296,61.575 301.488,61.442 301.835 C 61.089 302.755,61.105 302.784,62.228 303.211 C 63.547 303.712,63.457 305.335,62.100 305.528 C 61.415 305.625,61.200 305.919,61.200 306.760 C 61.200 307.647,61.376 307.857,62.100 307.832 C 63.229 307.792,63.611 309.961,62.620 310.783 C 61.810 311.455,61.819 312.800,62.633 312.800 C 62.982 312.800,63.184 313.025,63.083 313.300 C 62.982 313.575,62.694 313.754,62.442 313.697 C 61.820 313.558,62.320 315.658,63.048 316.244 C 63.795 316.845,63.746 318.580,62.965 319.229 C 62.394 319.703,62.414 319.787,63.165 320.065 C 64.089 320.407,64.382 322.917,63.557 323.426 C 63.242 323.621,63.257 323.788,63.608 324.005 C 63.983 324.237,64.021 325.257,63.766 328.255 C 63.453 331.915,63.411 332.056,63.177 330.200 C 62.934 328.264,62.924 328.251,62.868 329.800 C 62.793 331.910,63.164 333.200,63.847 333.200 C 64.151 333.200,64.419 333.335,64.441 333.500 C 64.464 333.665,64.639 336.680,64.831 340.200 C 65.276 348.385,65.580 351.306,66.035 351.780 C 66.637 352.407,66.465 354.800,65.800 355.055 C 65.470 355.182,65.200 355.476,65.200 355.709 C 65.200 355.943,65.307 356.027,65.437 355.896 C 66.015 355.319,68.062 357.795,67.903 358.879 C 67.813 359.491,67.952 360.050,68.220 360.152 C 68.864 360.399,70.800 364.346,70.800 365.411 C 70.800 365.917,71.216 366.487,71.822 366.812 C 72.704 367.284,72.814 367.552,72.624 368.779 C 72.369 370.425,73.359 372.237,73.972 371.246 C 74.352 370.631,76.363 371.788,76.387 372.636 C 76.406 373.286,79.630 376.513,80.931 377.184 C 81.820 377.643,82.021 377.978,81.873 378.755 C 81.578 380.294,82.566 381.045,83.811 380.229 L 84.802 379.580 84.701 295.490 L 84.600 211.400 71.100 211.295 L 57.600 211.189 57.600 218.595 M119.043 211.833 C 118.909 212.181,118.800 252.321,118.800 301.033 L 118.800 389.600 135.100 389.600 L 151.400 389.600 151.298 300.400 L 151.196 211.200 135.241 211.200 C 121.061 211.200,119.259 211.270,119.043 211.833 M185.843 211.833 C 185.709 212.181,185.600 252.321,185.600 301.033 L 185.600 389.600 201.900 389.600 L 218.200 389.600 218.098 300.400 L 217.996 211.200 202.041 211.200 C 187.861 211.200,186.059 211.270,185.843 211.833 M252.302 300.395 L 252.200 389.600 268.501 389.600 L 284.802 389.600 284.701 300.500 L 284.600 211.400 268.502 211.295 L 252.404 211.191 252.302 300.395 M318.998 212.100 C 318.575 213.855,318.980 375.727,319.408 375.869 C 319.823 376.008,321.295 374.731,323.334 372.462 C 324.569 371.087,325.200 370.864,325.200 371.800 C 325.200 372.130,325.380 372.400,325.600 372.400 C 325.820 372.400,326.000 371.626,326.000 370.680 C 326.000 369.084,326.517 368.000,327.280 368.000 C 327.456 368.000,327.603 368.315,327.606 368.700 C 327.611 369.267,327.680 369.293,327.970 368.834 C 328.167 368.523,328.231 367.668,328.112 366.934 C 327.986 366.157,328.065 365.600,328.301 365.600 C 328.524 365.600,328.805 365.224,328.925 364.764 C 329.091 364.131,329.345 363.992,329.972 364.191 C 330.619 364.397,330.800 364.281,330.800 363.660 C 330.800 363.224,331.025 362.772,331.300 362.657 C 331.657 362.507,331.597 362.318,331.092 361.999 C 330.195 361.432,330.542 360.807,331.600 361.084 C 332.541 361.330,332.690 360.597,331.772 360.244 C 331.228 360.036,331.265 359.832,332.044 358.739 C 332.539 358.043,332.992 357.097,333.050 356.637 C 333.108 356.177,333.363 354.900,333.616 353.800 C 333.870 352.700,334.157 350.630,334.254 349.200 C 334.351 347.770,334.597 346.240,334.801 345.800 C 335.004 345.360,335.243 341.948,335.331 338.218 C 335.432 333.983,335.650 331.383,335.912 331.296 C 336.192 331.203,336.256 329.370,336.106 325.787 C 335.884 320.498,335.894 320.413,336.776 320.087 C 337.577 319.791,337.604 319.702,337.035 319.229 C 336.005 318.374,336.367 312.800,337.452 312.800 C 338.196 312.800,338.147 311.420,337.380 310.784 C 336.326 309.908,336.761 307.093,338.000 306.777 L 339.000 306.522 338.000 306.361 C 336.552 306.128,336.397 304.533,337.772 304.011 C 339.065 303.519,339.050 300.985,337.755 301.187 C 337.089 301.291,337.128 299.941,337.805 299.446 C 338.811 298.710,339.175 293.642,338.259 293.129 C 337.896 292.926,337.600 292.430,337.600 292.027 C 337.600 291.203,339.058 290.633,339.349 291.342 C 339.452 291.594,339.551 291.095,339.568 290.233 C 339.586 289.372,339.486 288.780,339.347 288.919 C 339.016 289.251,337.600 288.486,337.600 287.976 C 337.600 287.758,338.050 287.409,338.600 287.200 C 339.888 286.710,340.017 284.651,338.800 284.000 C 337.875 283.505,337.738 282.800,338.567 282.800 C 339.592 282.800,339.680 276.540,338.672 275.270 C 338.368 274.886,338.411 274.638,338.826 274.376 C 339.617 273.875,339.987 273.911,340.076 274.500 C 340.151 274.989,340.533 264.545,340.995 249.420 C 341.122 245.251,341.310 241.756,341.413 241.654 C 341.516 241.551,341.600 237.817,341.600 233.357 C 341.600 228.382,341.755 225.152,342.000 225.000 C 342.241 224.851,342.400 222.063,342.400 217.976 L 342.400 211.200 330.808 211.200 L 319.215 211.200 318.998 212.100 M338.400 296.424 C 338.400 296.877,338.220 297.136,338.000 297.000 C 337.780 296.864,337.600 296.493,337.600 296.176 C 337.600 295.859,337.780 295.600,338.000 295.600 C 338.220 295.600,338.400 295.971,338.400 296.424 M336.909 330.000 C 336.909 330.990,336.987 331.395,337.082 330.900 C 337.178 330.405,337.178 329.595,337.082 329.100 C 336.987 328.605,336.909 329.010,336.909 330.000 " stroke="none" fill="#db2e45" fill-rule="evenodd"></path><path id="path2" d="M293.905 32.283 C 294.402 32.379,295.122 32.375,295.505 32.275 C 295.887 32.175,295.480 32.096,294.600 32.101 C 293.720 32.105,293.407 32.187,293.905 32.283 M232.114 39.400 C 232.117 40.500,232.195 40.903,232.287 40.295 C 232.379 39.686,232.377 38.786,232.282 38.295 C 232.187 37.803,232.111 38.300,232.114 39.400 M51.400 121.200 C 51.264 121.420,49.644 121.600,47.800 121.600 C 45.956 121.600,44.336 121.780,44.200 122.000 C 44.064 122.220,43.333 122.400,42.576 122.400 C 41.819 122.400,41.200 122.580,41.200 122.800 C 41.200 123.020,40.660 123.200,40.000 123.200 C 39.340 123.200,38.800 123.336,38.800 123.502 C 38.800 123.851,36.349 125.023,35.900 124.889 C 35.735 124.840,35.600 124.980,35.600 125.200 C 35.600 125.420,35.253 125.600,34.829 125.600 C 34.404 125.600,33.819 125.825,33.529 126.100 C 33.238 126.375,32.543 126.835,31.985 127.122 C 31.427 127.409,30.791 128.039,30.571 128.522 C 30.351 129.005,29.947 129.353,29.674 129.296 C 29.401 129.239,29.074 129.463,28.947 129.794 C 28.820 130.125,28.561 130.300,28.372 130.183 C 28.183 130.066,27.543 130.742,26.950 131.685 C 26.356 132.628,25.270 134.003,24.535 134.740 C 23.801 135.477,23.200 136.332,23.200 136.640 C 23.200 136.948,23.020 137.200,22.800 137.200 C 22.580 137.200,22.400 137.434,22.400 137.720 C 22.400 138.456,21.459 140.393,21.100 140.397 C 20.935 140.399,20.800 140.760,20.800 141.200 C 20.800 141.640,20.620 142.000,20.400 142.000 C 20.180 142.000,20.000 142.371,20.000 142.824 C 20.000 143.277,19.820 143.536,19.600 143.400 C 19.361 143.253,19.200 143.737,19.200 144.600 C 19.200 145.463,19.039 145.947,18.800 145.800 C 18.553 145.648,18.400 146.329,18.400 147.576 C 18.400 148.689,18.220 149.600,18.000 149.600 C 17.751 149.600,17.600 151.933,17.600 155.800 C 17.600 159.667,17.751 162.000,18.000 162.000 C 18.220 162.000,18.400 162.720,18.400 163.600 C 18.400 164.480,18.580 165.200,18.800 165.200 C 19.020 165.200,19.200 165.729,19.200 166.376 C 19.200 167.023,19.380 167.664,19.600 167.800 C 19.820 167.936,20.000 168.478,20.000 169.004 C 20.000 169.530,20.315 170.144,20.700 170.368 C 21.085 170.592,21.253 170.781,21.073 170.788 C 20.893 170.795,21.118 171.323,21.573 171.962 C 22.028 172.601,22.400 173.411,22.400 173.762 C 22.400 174.113,22.580 174.400,22.800 174.400 C 23.020 174.400,23.200 174.675,23.200 175.011 C 23.200 175.685,26.800 179.459,27.291 179.300 C 27.461 179.245,27.555 179.425,27.500 179.700 C 27.445 179.975,27.625 180.155,27.900 180.100 C 28.175 180.045,28.355 180.225,28.300 180.500 C 28.245 180.775,28.438 180.951,28.730 180.890 C 29.021 180.830,29.154 180.950,29.026 181.158 C 28.774 181.566,31.503 184.000,32.213 184.000 C 33.013 184.000,36.863 186.100,37.075 186.652 C 37.191 186.953,37.806 187.200,38.443 187.200 C 39.079 187.200,39.600 187.380,39.600 187.600 C 39.600 187.820,40.140 188.000,40.800 188.000 C 41.460 188.000,42.000 188.191,42.000 188.424 C 42.000 188.657,42.148 188.756,42.329 188.644 C 42.509 188.532,43.094 188.662,43.629 188.932 C 45.111 189.681,55.392 189.823,56.519 189.109 C 57.774 188.315,342.732 188.314,343.690 189.109 C 344.416 189.711,355.451 189.764,355.820 189.167 C 355.945 188.965,356.487 188.800,357.024 188.800 C 357.561 188.800,358.000 188.620,358.000 188.400 C 358.000 188.180,358.315 187.994,358.700 187.987 C 359.085 187.981,360.475 187.441,361.790 186.787 C 363.104 186.134,364.409 185.600,364.690 185.600 C 364.970 185.600,365.200 185.420,365.200 185.200 C 365.200 184.980,365.560 184.800,366.000 184.800 C 366.440 184.800,366.800 184.616,366.800 184.391 C 366.800 184.167,367.244 183.780,367.787 183.533 C 368.331 183.285,368.663 182.902,368.526 182.680 C 368.389 182.458,368.470 182.396,368.706 182.542 C 368.942 182.688,369.407 182.536,369.739 182.204 C 370.071 181.872,370.536 181.600,370.771 181.600 C 371.007 181.600,371.200 181.319,371.200 180.976 C 371.200 180.633,371.392 180.472,371.627 180.617 C 371.862 180.762,372.153 180.503,372.274 180.040 C 372.394 179.578,372.742 179.200,373.047 179.200 C 373.352 179.200,373.603 178.797,373.606 178.300 C 373.611 177.572,373.686 177.515,374.000 178.000 C 374.327 178.506,374.389 178.484,374.394 177.860 C 374.397 177.454,374.940 176.617,375.600 176.000 C 376.260 175.383,376.800 174.591,376.800 174.240 C 376.800 173.888,376.980 173.600,377.200 173.600 C 377.420 173.600,377.600 173.240,377.600 172.800 C 377.600 172.360,377.759 172.000,377.953 172.000 C 378.297 172.000,378.930 170.504,378.843 169.900 C 378.819 169.735,379.070 169.600,379.400 169.600 C 379.843 169.600,380.000 169.136,380.000 167.824 C 380.000 166.847,380.180 165.936,380.400 165.800 C 380.620 165.664,380.800 165.113,380.800 164.576 C 380.800 164.039,380.980 163.600,381.200 163.600 C 381.429 163.600,381.600 162.400,381.600 160.800 C 381.600 159.106,381.766 158.000,382.021 158.000 C 382.281 158.000,382.410 157.007,382.358 155.400 C 382.312 153.970,382.122 152.800,381.937 152.800 C 381.752 152.800,381.600 151.540,381.600 150.000 C 381.600 148.400,381.429 147.200,381.200 147.200 C 380.980 147.200,380.800 146.581,380.800 145.824 C 380.800 145.067,380.620 144.336,380.400 144.200 C 380.180 144.064,380.000 143.513,380.000 142.976 C 380.000 142.439,379.820 142.000,379.600 142.000 C 379.380 142.000,379.200 141.629,379.200 141.176 C 379.200 140.723,379.020 140.464,378.800 140.600 C 378.577 140.738,378.400 140.436,378.400 139.920 C 378.400 139.410,378.040 138.768,377.600 138.493 C 377.160 138.218,376.800 137.717,376.800 137.378 C 376.800 137.040,376.347 136.310,375.792 135.756 C 375.238 135.202,374.906 134.552,375.054 134.312 C 375.205 134.068,375.140 133.990,374.907 134.134 C 374.678 134.275,374.245 134.089,373.945 133.719 C 373.477 133.141,373.485 133.090,374.000 133.353 C 374.347 133.530,374.305 133.417,373.900 133.086 C 373.515 132.770,373.200 132.384,373.200 132.227 C 373.200 131.751,372.213 130.921,371.302 130.632 C 370.766 130.462,370.525 130.140,370.663 129.780 C 370.803 129.416,370.637 129.200,370.219 129.200 C 369.853 129.200,369.664 129.020,369.800 128.800 C 369.936 128.580,369.767 128.400,369.424 128.400 C 369.081 128.400,368.800 128.220,368.800 128.000 C 368.800 127.780,368.558 127.600,368.262 127.600 C 367.966 127.600,367.392 127.234,366.987 126.786 C 366.582 126.338,366.014 126.062,365.725 126.173 C 365.436 126.284,365.200 126.229,365.200 126.051 C 365.200 125.874,364.480 125.490,363.600 125.200 C 362.720 124.910,362.000 124.521,362.000 124.336 C 362.000 124.151,361.651 124.000,361.224 124.000 C 360.797 124.000,360.336 123.820,360.200 123.600 C 360.064 123.380,359.513 123.200,358.976 123.200 C 358.439 123.200,358.000 123.020,358.000 122.800 C 358.000 122.580,357.550 122.400,357.000 122.400 C 356.450 122.400,356.000 122.220,356.000 122.000 C 356.000 121.763,354.541 121.600,352.424 121.600 C 350.457 121.600,348.736 121.420,348.600 121.200 C 348.225 120.594,345.221 120.722,344.571 121.371 C 343.525 122.418,343.957 123.167,346.300 124.361 C 351.001 126.758,354.582 131.811,355.181 136.892 C 355.490 139.516,355.082 143.078,354.394 143.766 C 353.740 144.419,46.130 144.290,45.476 143.636 C 44.654 142.815,44.619 136.352,45.423 133.921 C 47.190 128.577,50.210 125.778,57.469 122.760 C 58.513 122.326,58.670 122.105,58.355 121.516 C 57.922 120.708,51.874 120.433,51.400 121.200 M86.000 295.306 C 86.000 386.273,86.112 381.468,84.003 380.917 C 83.553 380.799,83.200 380.903,83.200 381.153 C 83.200 381.399,83.560 381.600,84.000 381.600 C 84.440 381.600,84.800 381.791,84.800 382.024 C 84.800 382.257,84.980 382.336,85.200 382.200 C 85.420 382.064,85.600 382.244,85.600 382.600 C 85.600 382.956,85.765 383.145,85.968 383.020 C 86.170 382.895,86.579 383.019,86.877 383.296 C 87.175 383.573,87.685 383.858,88.010 383.930 C 88.334 384.001,88.660 384.226,88.733 384.430 C 88.807 384.633,89.212 384.800,89.633 384.800 C 90.055 384.800,90.400 384.980,90.400 385.200 C 90.400 385.420,90.535 385.579,90.700 385.553 C 91.604 385.410,92.415 385.652,92.200 386.000 C 92.059 386.228,92.404 386.400,93.000 386.400 C 93.596 386.400,93.941 386.572,93.800 386.800 C 93.660 387.026,93.988 387.200,94.553 387.200 C 95.103 387.200,95.664 387.380,95.800 387.600 C 95.936 387.820,96.667 388.000,97.424 388.000 C 98.181 388.000,98.800 388.151,98.800 388.335 C 98.800 388.519,99.646 388.702,100.680 388.741 C 101.714 388.781,102.659 388.967,102.780 389.155 C 102.901 389.343,106.375 389.530,110.501 389.571 L 118.002 389.644 117.901 300.522 L 117.800 211.400 101.900 211.295 L 86.000 211.191 86.000 295.306 M152.667 211.467 C 152.520 211.613,152.400 251.753,152.400 300.667 L 152.400 389.600 168.597 389.600 L 184.793 389.600 184.798 301.037 C 184.801 252.328,184.693 212.188,184.559 211.837 C 184.304 211.173,153.320 210.813,152.667 211.467 M219.388 211.695 C 219.283 211.973,219.153 252.115,219.099 300.900 L 219.000 389.600 235.200 389.600 L 251.400 389.600 251.200 300.500 L 251.000 211.400 235.289 211.295 C 222.934 211.213,219.538 211.298,219.388 211.695 M285.902 300.416 L 285.800 389.641 291.800 389.564 C 295.324 389.518,297.908 389.319,298.062 389.081 C 298.206 388.858,298.922 388.693,299.653 388.714 C 300.384 388.735,301.080 388.594,301.199 388.402 C 301.318 388.210,301.900 387.987,302.492 387.908 C 303.085 387.829,303.697 387.637,303.852 387.482 C 304.007 387.327,304.654 387.200,305.290 387.200 C 305.960 387.200,306.343 387.031,306.200 386.800 C 305.981 386.445,306.822 386.205,307.730 386.363 C 307.911 386.394,307.945 386.235,307.806 386.010 C 307.586 385.654,308.387 385.408,309.300 385.553 C 309.465 385.579,309.600 385.420,309.600 385.200 C 309.600 384.980,309.945 384.800,310.367 384.800 C 310.788 384.800,311.193 384.633,311.267 384.430 C 311.340 384.226,311.666 384.001,311.990 383.930 C 312.315 383.858,312.825 383.573,313.123 383.296 C 313.421 383.019,313.830 382.895,314.032 383.020 C 314.235 383.145,314.400 382.956,314.400 382.600 C 314.400 382.244,314.580 382.064,314.800 382.200 C 315.020 382.336,315.200 382.257,315.200 382.024 C 315.200 381.791,315.488 381.600,315.840 381.600 C 316.191 381.600,316.983 381.060,317.600 380.400 C 318.217 379.740,318.932 379.200,319.189 379.200 C 319.811 379.200,320.828 378.162,320.514 377.848 C 320.378 377.711,320.577 377.600,320.957 377.600 C 321.337 377.600,321.536 377.420,321.400 377.200 C 321.264 376.980,321.433 376.800,321.776 376.800 C 322.119 376.800,322.400 376.620,322.400 376.400 C 322.400 375.942,321.207 375.843,321.187 376.300 C 321.133 377.510,319.562 378.490,318.793 377.793 C 318.010 377.085,318.001 376.183,317.901 294.239 L 317.800 211.400 301.902 211.295 L 286.004 211.191 285.902 300.416 M338.300 307.428 C 338.135 307.596,338.000 308.369,338.000 309.147 C 338.000 310.153,338.124 310.436,338.429 310.131 C 338.665 309.895,338.800 309.122,338.729 308.413 C 338.658 307.704,338.465 307.261,338.300 307.428 M61.200 308.976 C 61.200 309.513,61.380 310.064,61.600 310.200 C 61.833 310.344,62.000 309.937,62.000 309.224 C 62.000 308.551,61.820 308.000,61.600 308.000 C 61.380 308.000,61.200 308.439,61.200 308.976 M337.300 324.382 C 336.712 325.331,336.660 326.760,337.184 327.588 C 337.786 328.540,338.053 327.832,337.922 325.632 C 337.813 323.801,337.745 323.664,337.300 324.382 M62.000 325.967 C 62.000 328.078,62.606 328.712,63.026 327.041 C 63.356 325.722,63.102 324.296,62.500 324.098 C 62.144 323.981,62.000 324.519,62.000 325.967 M62.828 342.233 C 62.844 343.315,62.997 344.560,63.170 345.000 C 63.357 345.476,63.433 344.767,63.359 343.250 C 63.210 340.219,62.788 339.411,62.828 342.233 M336.228 341.470 C 336.088 341.836,336.183 342.266,336.439 342.424 C 336.737 342.609,336.818 343.269,336.662 344.256 C 336.491 345.341,336.527 345.562,336.781 345.000 C 337.258 343.949,337.298 341.308,336.842 341.026 C 336.645 340.904,336.369 341.104,336.228 341.470 M336.032 349.887 C 336.014 350.156,335.730 350.271,335.400 350.145 C 335.031 350.003,334.800 350.145,334.800 350.514 C 334.800 351.334,335.975 351.731,336.253 351.006 C 336.375 350.687,336.383 350.195,336.269 349.913 C 336.119 349.538,336.055 349.531,336.032 349.887 M335.200 352.771 C 335.200 352.976,334.909 353.434,334.552 353.790 C 333.817 354.526,334.059 355.016,334.983 354.662 C 335.529 354.452,335.908 352.400,335.400 352.400 C 335.290 352.400,335.200 352.567,335.200 352.771 M64.400 353.144 C 64.400 353.986,64.913 354.800,65.443 354.800 C 65.749 354.800,66.000 354.609,66.000 354.376 C 66.000 354.143,65.820 354.064,65.600 354.200 C 65.380 354.336,65.200 354.177,65.200 353.847 C 65.200 353.517,65.020 353.136,64.800 353.000 C 64.580 352.864,64.400 352.929,64.400 353.144 M65.600 356.948 C 65.600 357.606,66.318 358.215,66.674 357.859 C 66.796 357.738,66.604 357.347,66.248 356.990 C 65.688 356.431,65.600 356.425,65.600 356.948 M333.200 357.000 C 333.200 357.367,333.394 357.602,333.630 357.523 C 333.867 357.445,334.060 357.209,334.060 357.000 C 334.060 356.791,333.867 356.555,333.630 356.477 C 333.394 356.398,333.200 356.633,333.200 357.000 M328.400 367.624 C 328.400 368.077,328.580 368.336,328.800 368.200 C 329.020 368.064,329.200 367.693,329.200 367.376 C 329.200 367.059,329.020 366.800,328.800 366.800 C 328.580 366.800,328.400 367.171,328.400 367.624 M326.910 370.000 C 326.943 370.440,327.112 370.800,327.285 370.800 C 327.458 370.800,327.600 370.440,327.600 370.000 C 327.600 369.560,327.431 369.200,327.225 369.200 C 327.019 369.200,326.877 369.560,326.910 370.000 M75.102 373.076 C 75.006 373.254,75.258 373.715,75.663 374.100 C 76.522 374.916,76.623 374.527,75.826 373.476 C 75.524 373.078,75.198 372.898,75.102 373.076 M323.722 373.583 C 322.505 375.004,322.748 375.784,324.019 374.537 C 324.656 373.911,325.183 373.265,325.189 373.100 C 325.210 372.532,324.391 372.801,323.722 373.583 M79.467 377.867 C 79.341 377.992,79.508 378.365,79.838 378.695 C 80.168 379.025,80.541 379.192,80.667 379.067 C 80.792 378.941,80.625 378.568,80.295 378.238 C 79.965 377.908,79.592 377.741,79.467 377.867 " stroke="none" fill="#e8eeee" fill-rule="evenodd"></path><path id="path3" d="M56.000 190.800 C 56.000 191.680,56.180 192.400,56.400 192.400 C 56.654 192.400,56.800 195.533,56.800 201.000 C 56.800 206.467,56.946 209.600,57.200 209.600 C 57.420 209.600,57.600 209.958,57.600 210.395 C 57.600 211.170,57.932 211.192,71.100 211.295 L 84.600 211.400 84.706 295.400 L 84.813 379.400 83.962 380.100 C 83.131 380.784,83.130 380.800,83.913 380.800 C 85.228 380.800,85.200 382.929,85.200 284.367 L 85.200 189.200 70.600 189.200 L 56.000 189.200 56.000 190.800 M118.671 189.462 C 118.522 189.611,118.444 234.748,118.498 289.767 L 118.596 389.800 118.800 300.600 C 118.913 251.540,119.048 211.355,119.102 211.300 C 119.156 211.245,126.400 211.200,135.200 211.200 L 151.200 211.200 151.200 300.176 C 151.200 359.179,151.335 389.236,151.601 389.400 C 151.868 389.566,151.968 356.328,151.901 289.524 L 151.800 189.400 135.371 189.296 C 126.335 189.238,118.820 189.313,118.671 189.462 M185.298 289.496 L 185.396 389.800 185.600 300.600 C 185.713 251.540,185.848 211.355,185.902 211.300 C 185.956 211.245,193.200 211.200,202.000 211.200 L 218.000 211.200 218.000 300.176 C 218.000 359.179,218.135 389.236,218.401 389.400 C 218.668 389.566,218.768 356.328,218.701 289.524 L 218.600 189.400 201.900 189.296 L 185.200 189.191 185.298 289.496 M251.867 189.467 C 251.415 189.919,251.548 389.679,252.000 389.400 C 252.265 389.236,252.400 359.061,252.400 300.172 L 252.400 211.191 268.500 211.295 L 284.600 211.400 284.801 300.600 L 285.003 389.800 285.101 289.500 L 285.200 189.200 268.667 189.200 C 259.573 189.200,252.013 189.320,251.867 189.467 M318.667 189.467 C 318.238 189.895,318.359 376.516,318.788 377.194 C 319.099 377.686,319.388 377.559,320.469 376.454 C 321.186 375.720,321.839 375.318,321.920 375.560 C 322.203 376.408,322.800 375.990,322.800 374.943 C 322.800 374.285,323.264 373.443,324.032 372.709 C 324.710 372.061,325.178 371.444,325.071 371.338 C 324.741 371.007,323.369 372.055,322.567 373.252 C 321.605 374.686,319.709 376.114,319.191 375.795 C 318.763 375.530,318.616 212.946,319.043 211.833 C 319.256 211.276,320.673 211.200,330.843 211.200 C 342.133 211.200,342.400 211.182,342.400 210.400 C 342.400 209.960,342.580 209.600,342.800 209.600 C 343.054 209.600,343.200 206.467,343.200 201.000 C 343.200 195.533,343.346 192.400,343.600 192.400 C 343.820 192.400,344.000 191.680,344.000 190.800 L 344.000 189.200 331.467 189.200 C 324.573 189.200,318.813 189.320,318.667 189.467 M60.270 274.500 C 60.444 274.775,60.572 275.900,60.553 277.000 C 60.525 278.641,60.550 278.714,60.687 277.408 C 60.779 276.532,61.056 275.573,61.302 275.277 C 61.637 274.873,61.606 274.649,61.174 274.376 C 60.351 273.855,59.900 273.917,60.270 274.500 M338.826 274.376 C 338.393 274.649,338.362 274.872,338.700 275.280 C 338.947 275.577,339.223 276.626,339.314 277.610 C 339.456 279.153,339.474 279.096,339.448 277.200 C 339.431 275.990,339.559 274.775,339.732 274.500 C 340.100 273.917,339.648 273.855,338.826 274.376 M338.000 283.186 C 338.000 283.398,338.342 283.755,338.761 283.979 C 339.408 284.325,339.490 284.268,339.314 283.593 C 339.107 282.800,338.000 282.457,338.000 283.186 M60.721 287.244 C 60.814 287.880,61.028 288.400,61.196 288.400 C 61.550 288.400,62.591 287.225,62.357 287.090 C 60.536 286.043,60.545 286.042,60.721 287.244 M338.500 287.212 C 337.401 287.654,337.348 288.237,338.356 288.776 C 339.007 289.125,339.136 289.016,339.287 287.991 C 339.383 287.336,339.448 286.811,339.431 286.825 C 339.414 286.839,338.995 287.013,338.500 287.212 M61.263 291.337 C 61.766 291.714,61.827 292.009,61.515 292.566 C 61.199 293.131,61.231 293.257,61.653 293.118 C 62.632 292.795,62.538 291.328,61.521 291.072 C 60.716 290.869,60.683 290.902,61.263 291.337 M338.277 291.080 C 337.435 291.298,337.488 292.835,338.347 293.118 C 338.769 293.257,338.801 293.131,338.485 292.566 C 338.174 292.010,338.234 291.712,338.737 291.329 C 339.438 290.796,339.417 290.785,338.277 291.080 M337.600 296.176 C 337.600 296.493,337.780 296.864,338.000 297.000 C 338.220 297.136,338.400 296.877,338.400 296.424 C 338.400 295.971,338.220 295.600,338.000 295.600 C 337.780 295.600,337.600 295.859,337.600 296.176 M337.700 299.495 C 337.102 299.700,337.033 301.050,337.603 301.402 C 338.065 301.688,338.532 300.718,338.334 299.885 C 338.260 299.576,337.975 299.400,337.700 299.495 M61.671 300.623 C 61.813 301.307,62.507 301.479,62.707 300.879 C 62.777 300.670,62.543 300.387,62.188 300.251 C 61.742 300.080,61.582 300.195,61.671 300.623 M61.275 304.104 C 61.370 305.092,61.590 305.400,62.200 305.400 C 63.387 305.400,63.287 303.598,62.075 303.149 C 61.216 302.832,61.159 302.899,61.275 304.104 M337.700 304.037 C 336.658 304.427,336.478 305.901,337.427 306.266 C 338.296 306.599,338.888 305.889,338.731 304.699 C 338.619 303.846,338.469 303.750,337.700 304.037 M337.067 307.067 C 336.557 307.576,336.800 310.302,337.400 310.800 C 337.778 311.114,338.000 311.141,338.000 310.873 C 338.000 310.639,337.820 310.336,337.600 310.200 C 336.797 309.703,337.150 307.595,338.100 307.212 C 338.964 306.865,338.967 306.850,338.167 306.825 C 337.708 306.811,337.213 306.920,337.067 307.067 M62.182 308.376 C 62.829 309.095,62.881 309.378,62.482 310.017 C 61.820 311.078,61.878 311.399,62.620 310.783 C 63.522 310.035,63.228 307.849,62.200 307.657 C 61.405 307.508,61.405 307.513,62.182 308.376 M62.077 313.230 C 62.156 313.466,62.391 313.660,62.600 313.660 C 62.809 313.660,63.044 313.466,63.123 313.230 C 63.202 312.994,62.967 312.800,62.600 312.800 C 62.233 312.800,61.998 312.994,62.077 313.230 M336.657 314.300 C 336.246 316.782,336.367 318.674,336.966 319.172 C 337.738 319.813,337.972 318.930,337.937 315.500 C 337.907 312.476,337.085 311.706,336.657 314.300 M62.054 316.267 C 61.985 318.904,62.289 319.790,63.047 319.161 C 63.771 318.560,63.760 316.547,63.031 316.267 C 62.718 316.147,62.383 315.633,62.285 315.124 C 62.188 314.616,62.084 315.130,62.054 316.267 M62.271 321.485 C 62.310 322.318,62.378 323.045,62.421 323.100 C 62.464 323.155,62.523 323.387,62.550 323.615 C 62.578 323.843,62.849 324.183,63.154 324.372 C 63.606 324.651,63.641 325.421,63.344 328.547 C 63.144 330.654,63.108 332.249,63.263 332.090 C 63.831 331.506,64.149 324.000,63.606 324.000 C 63.214 324.000,63.207 323.873,63.578 323.426 C 64.344 322.504,63.949 320.221,63.000 320.085 C 62.311 319.986,62.210 320.180,62.271 321.485 M336.129 320.642 C 335.993 320.995,335.987 323.504,336.115 326.217 C 336.274 329.563,336.211 331.196,335.920 331.293 C 335.647 331.384,335.434 333.893,335.331 338.218 C 335.243 341.948,335.004 345.360,334.801 345.800 C 334.597 346.240,334.351 347.770,334.254 349.200 C 334.092 351.576,333.714 353.750,333.000 356.400 C 332.810 357.105,332.846 357.237,333.121 356.849 C 333.335 356.546,333.711 356.422,333.957 356.573 C 334.269 356.766,334.333 356.408,334.171 355.384 C 333.984 354.209,334.109 353.758,334.802 353.112 C 335.423 352.534,335.544 352.184,335.233 351.873 C 334.230 350.870,334.826 349.336,336.130 349.563 C 336.312 349.594,336.336 349.211,336.184 348.710 C 335.821 347.514,335.821 347.520,336.200 346.647 C 336.395 346.197,336.340 345.595,336.063 345.152 C 335.389 344.073,335.467 340.937,336.174 340.665 C 336.490 340.544,336.831 340.660,336.932 340.922 C 337.175 341.552,336.915 331.897,336.577 327.744 C 336.346 324.899,336.400 324.440,337.008 324.100 C 338.029 323.528,338.098 319.999,337.087 320.000 C 336.696 320.000,336.264 320.289,336.129 320.642 M63.293 335.217 C 63.390 336.326,63.318 337.327,63.134 337.441 C 62.412 337.887,62.774 340.338,63.600 340.600 C 64.516 340.891,64.776 344.264,63.946 345.094 C 63.607 345.433,63.607 346.006,63.946 347.351 C 64.489 349.506,64.500 349.709,64.067 349.441 C 63.883 349.328,63.733 349.497,63.733 349.818 C 63.733 350.138,63.815 350.319,63.914 350.219 C 64.014 350.120,64.368 350.311,64.702 350.645 C 65.155 351.098,65.193 351.367,64.854 351.706 C 64.192 352.368,64.293 352.712,65.239 353.012 C 65.862 353.210,66.031 353.524,65.897 354.227 C 65.797 354.749,65.870 355.081,66.058 354.964 C 66.514 354.682,66.497 352.261,66.035 351.780 C 65.580 351.306,65.276 348.385,64.831 340.200 C 64.639 336.680,64.464 333.665,64.441 333.500 C 64.219 331.887,63.144 333.495,63.293 335.217 M66.690 357.300 C 67.147 357.795,67.607 358.560,67.714 359.000 C 67.868 359.638,67.917 359.590,67.954 358.762 C 67.979 358.191,67.671 357.426,67.269 357.062 C 66.180 356.077,65.733 356.261,66.690 357.300 M332.089 358.676 C 331.282 359.808,331.275 360.400,332.067 360.400 C 332.250 360.400,332.400 360.055,332.400 359.633 C 332.400 359.212,332.607 358.798,332.860 358.713 C 333.113 358.629,333.238 358.313,333.137 358.010 C 333.012 357.637,332.676 357.851,332.089 358.676 M67.600 360.400 C 67.600 360.620,67.780 360.800,68.000 360.800 C 68.220 360.800,68.400 361.070,68.400 361.400 C 68.400 361.730,68.580 362.000,68.800 362.000 C 69.020 362.000,69.200 362.360,69.200 362.800 C 69.200 363.240,69.380 363.600,69.600 363.600 C 69.820 363.600,70.000 364.140,70.000 364.800 C 70.000 365.460,70.203 366.000,70.450 366.000 C 71.126 366.000,70.560 363.743,69.379 361.727 C 68.430 360.109,67.600 359.490,67.600 360.400 M330.639 361.138 C 330.500 361.361,330.582 361.665,330.820 361.812 C 331.435 362.193,331.832 361.672,331.318 361.158 C 331.031 360.871,330.807 360.864,330.639 361.138 M328.916 364.800 C 328.801 365.240,328.548 365.600,328.353 365.600 C 328.159 365.600,328.021 366.095,328.046 366.700 C 328.073 367.341,328.168 367.515,328.272 367.119 C 328.371 366.744,328.800 366.327,329.226 366.192 C 329.712 366.038,330.000 365.584,330.000 364.973 C 330.000 363.802,329.210 363.675,328.916 364.800 M71.476 367.100 C 71.915 367.485,72.379 368.070,72.506 368.400 C 72.681 368.854,72.745 368.816,72.768 368.244 C 72.786 367.828,72.485 367.249,72.100 366.957 C 71.063 366.170,70.549 366.287,71.476 367.100 M326.480 368.480 C 325.900 369.060,325.840 370.800,326.400 370.800 C 326.620 370.800,326.800 370.350,326.800 369.800 C 326.800 369.250,326.980 368.800,327.200 368.800 C 327.420 368.800,327.600 368.620,327.600 368.400 C 327.600 367.858,327.064 367.896,326.480 368.480 M74.094 371.500 C 74.179 371.885,74.482 372.148,74.769 372.085 C 75.402 371.945,76.370 373.142,76.387 374.086 C 76.405 375.033,79.186 377.980,79.829 377.734 C 80.116 377.623,80.586 377.908,80.872 378.367 C 81.515 379.395,82.000 379.439,82.000 378.468 C 82.000 378.065,81.505 377.480,80.900 377.168 C 79.678 376.538,76.400 373.284,76.400 372.700 C 76.400 372.277,74.771 370.834,74.271 370.813 C 74.090 370.806,74.010 371.115,74.094 371.500 " stroke="none" fill="#b77c8c" fill-rule="evenodd"></path><path id="path4" d="M56.945 188.889 C 56.839 189.060,63.153 189.200,70.976 189.200 L 85.200 189.200 85.200 284.426 C 85.200 350.485,85.071 379.920,84.777 380.526 C 84.380 381.348,84.404 381.344,85.177 380.456 L 86.000 379.511 86.000 295.351 L 86.000 211.191 101.900 211.295 L 117.800 211.400 117.999 300.600 L 118.199 389.800 118.399 289.600 L 118.600 189.400 135.200 189.400 L 151.800 189.400 152.001 289.600 L 152.201 389.800 152.401 300.600 L 152.600 211.400 168.373 211.295 C 180.726 211.213,184.217 211.300,184.468 211.695 C 184.645 211.973,184.790 252.053,184.791 300.763 C 184.792 349.473,184.885 389.418,184.996 389.530 C 185.108 389.642,185.200 344.611,185.200 289.462 L 185.200 189.191 201.900 189.296 L 218.600 189.400 218.801 289.400 L 219.001 389.400 219.201 300.400 L 219.400 211.400 235.200 211.400 L 251.000 211.400 251.199 300.400 L 251.399 389.400 251.599 289.400 L 251.800 189.400 268.500 189.296 L 285.200 189.191 285.200 289.419 C 285.200 356.136,285.334 389.565,285.600 389.400 C 285.865 389.236,286.000 359.061,286.000 300.172 L 286.000 211.191 301.900 211.295 L 317.800 211.400 317.901 294.239 C 318.002 376.868,318.004 377.080,318.813 377.811 C 319.602 378.525,319.640 378.522,320.239 377.666 C 320.578 377.182,321.050 376.907,321.289 377.055 C 321.562 377.224,321.607 377.135,321.411 376.817 C 321.229 376.523,321.324 376.171,321.637 375.977 C 321.934 375.794,322.073 375.539,321.945 375.412 C 321.818 375.285,321.140 375.767,320.439 376.485 C 319.382 377.566,319.100 377.687,318.788 377.194 C 318.555 376.826,318.447 340.957,318.506 283.000 L 318.600 189.400 331.200 189.191 C 338.130 189.077,343.620 188.918,343.400 188.840 C 342.570 188.543,57.129 188.592,56.945 188.889 M60.912 292.023 C 60.980 292.932,61.420 293.045,61.732 292.233 C 61.852 291.921,61.703 291.572,61.401 291.456 C 61.044 291.319,60.873 291.516,60.912 292.023 M338.522 291.457 C 338.260 291.564,338.144 291.910,338.265 292.226 C 338.582 293.052,339.020 292.932,339.090 292.000 C 339.123 291.560,339.116 291.214,339.075 291.232 C 339.034 291.249,338.785 291.351,338.522 291.457 M337.467 307.467 C 336.987 307.946,337.187 309.891,337.764 310.370 C 338.197 310.729,338.398 310.726,338.626 310.358 C 338.825 310.037,338.754 309.981,338.415 310.191 C 338.026 310.431,337.943 310.115,338.064 308.853 C 338.214 307.272,338.048 306.886,337.467 307.467 M62.000 309.400 C 62.000 310.090,61.842 310.350,61.538 310.162 C 61.245 309.981,61.185 310.053,61.374 310.358 C 61.602 310.726,61.803 310.729,62.236 310.370 C 62.893 309.825,62.974 308.955,62.400 308.600 C 62.172 308.459,62.000 308.804,62.000 309.400 M336.561 324.558 C 336.183 325.542,336.582 328.132,337.139 328.315 C 337.564 328.455,337.585 328.320,337.239 327.673 C 336.661 326.593,336.681 325.079,337.280 324.480 C 337.653 324.107,337.651 324.000,337.267 324.000 C 336.997 324.000,336.679 324.251,336.561 324.558 M63.267 325.526 C 63.230 326.256,63.014 327.201,62.786 327.626 C 62.497 328.166,62.501 328.400,62.798 328.400 C 63.431 328.400,63.673 327.476,63.494 325.742 C 63.341 324.263,63.332 324.254,63.267 325.526 M63.343 342.496 C 63.377 343.726,63.598 344.599,63.900 344.700 C 64.641 344.947,64.585 340.956,63.843 340.672 C 63.407 340.505,63.298 340.903,63.343 342.496 M336.100 340.665 C 335.794 340.789,335.600 341.641,335.600 342.867 C 335.600 344.288,335.745 344.819,336.100 344.702 C 336.772 344.481,336.991 342.765,336.394 342.396 C 336.033 342.173,336.028 341.895,336.373 341.251 C 336.623 340.783,336.777 340.414,336.714 340.432 C 336.651 340.449,336.375 340.554,336.100 340.665 M65.091 353.625 C 65.201 354.046,65.450 354.292,65.645 354.172 C 66.172 353.846,66.075 353.314,65.445 353.073 C 65.057 352.924,64.951 353.089,65.091 353.625 M74.800 372.624 C 74.800 372.967,74.980 373.136,75.200 373.000 C 75.581 372.764,75.782 373.340,75.619 374.200 C 75.577 374.422,75.748 374.398,76.004 374.147 C 76.353 373.805,76.336 373.487,75.937 372.847 C 75.313 371.848,74.800 371.747,74.800 372.624 M324.039 372.553 C 323.684 372.981,323.723 373.162,324.211 373.349 C 324.575 373.488,324.738 373.424,324.597 373.195 C 324.463 372.978,324.543 372.800,324.776 372.800 C 325.009 372.800,325.200 372.620,325.200 372.400 C 325.200 371.825,324.575 371.908,324.039 372.553 " stroke="none" fill="#b4c3cb" fill-rule="evenodd"></path></g></svg>